<svg xmlns="http://www.w3.org/2000/svg" width="21" height="19" viewBox="0 0 21 19">
  <defs>
    <style>
      .cls-1 {
        fill: #ffd000;
        fill-rule: evenodd;
      }
    </style>
  </defs>
  <path id="home" class="cls-1" d="M8.909,18.742c-0.069,0-.133.012-0.2,0.013-1.483,0-2.967-.011-4.45,0A0.9,0.9,0,0,1,3.252,17.75c0-.849,0-1.7,0-2.548,0-1.344,0-2.688-.006-4.031a0.66,0.66,0,0,1,.231-0.527Q6.466,7.855,9.449,5.058q0.474-.444.946-0.891c0.131-.124.148-0.126,0.279,0q1.546,1.451,3.092,2.9,1.821,1.7,3.645,3.406a0.8,0.8,0,0,1,.4.926q0,3.152,0,6.3a1.937,1.937,0,0,1-.025.326,0.8,0.8,0,0,1-.853.726c-0.63,0-1.26,0-1.89,0H12.355c-0.192,0-.191,0-0.191-0.194q0-2.594,0-5.187c0-.107-0.037-0.131-0.137-0.131q-1.49,0-2.98,0c-0.115,0-.135.042-0.135,0.146q0,2.62,0,5.24C8.915,18.662,8.911,18.7,8.909,18.742ZM14.576,3.6c0.006-.121.013-0.2,0.013-0.284q0-1.176,0-2.351c0-.053,0-0.105,0-0.157A0.4,0.4,0,0,1,15.065.355q1.135,0,2.271,0a0.408,0.408,0,0,1,.477.47c0.005,0.692,0,1.383,0,2.075q0,1.779,0,3.559a0.506,0.506,0,0,0,.181.39q1.2,1.128,2.4,2.263a1.329,1.329,0,0,1,.3.378,0.429,0.429,0,0,1,0,.354c-0.244.378-.513,0.741-0.781,1.1a0.382,0.382,0,0,1-.662.06c-0.68-.638-1.354-1.281-2.031-1.922L10.755,2.971c-0.2-.185-0.25-0.181-0.469.026l-3.6,3.414Q4.292,8.678,1.9,10.943c-0.336.318-.517,0.3-0.787-0.071-0.242-.333-0.479-0.669-0.718-1a0.367,0.367,0,0,1-.006-0.4A2.689,2.689,0,0,1,.688,9.1Q4.437,5.546,8.191,2l1.3-1.229a1.417,1.417,0,0,1,2.1.006q1.416,1.35,2.836,2.7C14.463,3.505,14.5,3.537,14.576,3.6Z"/>
</svg>
