<?xml version="1.0" encoding="utf-8"?>
<!-- Generator: Adobe Illustrator 24.0.2, SVG Export Plug-In . SVG Version: 6.00 Build 0)  -->
<svg version="1.1" id="Layer_1" xmlns="http://www.w3.org/2000/svg" xmlns:xlink="http://www.w3.org/1999/xlink" x="0px" y="0px"
	 viewBox="0 0 500 206.81" style="enable-background:new 0 0 500 206.81;" xml:space="preserve">
<style type="text/css">
	.st0{fill:#FFD000;}
</style>
<g>
	<g>
		<g>
			<g>
				<path d="M233.98,62.93h-4.63L213.3,39.08l-12.83,12.83v11.02h-3.84V20.55h3.84v25.94l25.88-25.94h5.37l-15.54,15.6L233.98,62.93
					z"/>
				<path d="M290.87,63.83c-13.05,0-22.71-9.32-22.71-22.09c0-12.77,9.66-22.09,22.71-22.09c13.11,0,22.72,9.32,22.72,22.09
					C313.58,54.51,303.92,63.83,290.87,63.83z M309.74,41.74c0-9.72-7.52-18.25-18.87-18.25c-11.36,0-18.87,8.53-18.87,18.25
					s7.52,18.25,18.87,18.25C302.23,59.99,309.74,51.46,309.74,41.74z"/>
				<path d="M388.89,62.93h-4.47L373.8,44.84h-18.48v18.08h-3.84V20.55h25.94c9.55,0,12.37,7.57,12.37,11.92
					c0,9.95-7.91,12.09-11.58,12.37L388.89,62.93z M374.03,41c5.37,0,11.92-0.57,11.92-8.53c0-6.84-5.76-8.08-8.53-8.08h-22.1V41
					H374.03z"/>
				<path d="M468.21,62.93h-4.29l-7.4-15.03H434.7l-7.4,15.03h-4.29l20.68-42.38h3.84L468.21,62.93z M445.61,24.84l-8.98,19.21
					h17.91L445.61,24.84z"/>
			</g>
		</g>
		<g>
			<path d="M197.61,187.5V86.39h21.46c12.32,0.03,18.31,6.65,18.31,20.23v60.71c0,13.54-6.3,20.14-19.27,20.17H197.61z
				 M209.08,176.25h8.44c5.41,0,8.39-3.17,8.39-8.92v-60.71c0-5.79-2.98-8.98-8.39-8.98h-8.44V176.25z"/>
			<rect x="251.48" y="86.39" width="11.46" height="101.11"/>
			<path d="M296.89,189.21c-13.36,0-19.85-6.62-19.85-20.23v-64.07c0-13.58,6.49-20.17,19.85-20.17c13.4,0,19.91,6.6,19.91,20.17
				v12.27h-11.46v-12.27c0-5.71-2.97-8.88-8.38-8.92c-5.5,0-8.46,3.17-8.46,8.92v64.07c0,5.75,2.98,8.92,8.39,8.92
				c5.44,0,8.44-3.17,8.44-8.92V142.6h-7.63v-11.3h19.1v37.69C316.81,182.56,310.29,189.18,296.89,189.21L296.89,189.21z"/>
			<rect x="330.91" y="86.39" width="11.46" height="101.11"/>
			<polygon points="367.42,187.5 367.42,97.64 353.27,97.64 353.27,86.39 393.03,86.39 393.03,97.64 378.88,97.64 378.88,187.5 			
				"/>
			<path d="M432.32,187.5l-2.94-22.21h-18.62l-2.99,22.21h-11.54l4.64-34.94l10.43-66.17h17.6l10.38,66.05l4.63,35.06H432.32z
				 M412.2,153.99h15.69l-6.04-45.63h-3.61L412.2,153.99z"/>
			<polygon points="454.27,187.5 454.27,86.39 465.74,86.39 465.74,176.25 489.81,176.25 489.81,187.5 			"/>
		</g>
		<g>
			<polygon class="st0" points="71.43,81.61 71.43,51.54 42.27,51.54 42.27,160.42 10.19,160.42 10.19,22.37 130.67,22.37 			"/>
			<polygon points="176.91,17.38 176.91,189.1 42.27,189.1 42.27,160.42 71.43,160.42 71.43,125.9 105.95,160.42 147.19,160.42 
				90.53,103.76 171.92,22.37 			"/>
		</g>
	</g>
</g>
</svg>
