<svg xmlns="http://www.w3.org/2000/svg" width="26" height="31" viewBox="0 0 26 31">
  <defs>
    <style>
      .cls-1 {
        fill: #ffd000;
        fill-rule: evenodd;
      }
    </style>
  </defs>
  <path id="scroll" class="cls-1" d="M13.213,25.252L5.575,17.714c-0.265-.261-0.518-0.54-0.8-0.779a2.527,2.527,0,0,0-3.624-.014A2.274,2.274,0,0,0,1.253,20.3C2.36,21.453,3.546,22.533,4.7,23.644c2.113,2.037,4.208,4.09,6.344,6.1,1.513,1.426,2.72,1.422,4.225-.01q4.752-4.528,9.456-9.1c1.364-1.324,1.506-2.666.462-3.723-1.083-1.1-2.614-1-3.969.341C18.6,19.83,16.026,22.438,13.213,25.252Zm0-15.211L5.575,2.5c-0.265-.261-0.518-0.54-0.8-0.779a2.527,2.527,0,0,0-3.624-.014A2.274,2.274,0,0,0,1.253,5.09C2.36,6.242,3.546,7.322,4.7,8.433c2.113,2.037,4.208,4.09,6.344,6.1,1.513,1.426,2.72,1.422,4.225-.01q4.752-4.528,9.456-9.1c1.364-1.324,1.506-2.666.462-3.723-1.083-1.1-2.614-1-3.969.341C18.6,4.619,16.026,7.227,13.213,10.041Z"/>
</svg>
