<svg xmlns="http://www.w3.org/2000/svg" width="13" height="20" viewBox="0 0 13 20">
  <defs>
    <style>
      .cls-1 {
        fill-rule: evenodd;
      }
    </style>
  </defs>
  <path id="arrow" class="cls-1" d="M5.526,10.335l0.3-.293Q9.146,6.766,12.47,3.493a0.8,0.8,0,0,0,.268-0.722,0.7,0.7,0,0,0-.2-0.407c-0.432-.42-0.862-0.843-1.3-1.256a0.823,0.823,0,0,0-1.114.013c-0.3.28-.589,0.57-0.883,0.855L2.154,8.857l-0.937.912a0.766,0.766,0,0,0,0,1.137l8.345,8.109,0.532,0.517a0.835,0.835,0,0,0,1.173,0c0.4-.387.8-0.781,1.205-1.159a0.8,0.8,0,0,0,.007-1.188c-1.027-1-2.043-2.009-3.063-3.015L5.573,10.385C5.557,10.37,5.543,10.354,5.526,10.335Z"/>
</svg>
