<svg xmlns="http://www.w3.org/2000/svg" width="55" height="23" viewBox="0 0 55 23">
  <defs>
    <style>
      .cls-1 {
        fill-rule: evenodd;
      }
    </style>
  </defs>
  <path id="arrow" class="cls-1" d="M4.318,10.135A1.291,1.291,0,0,0,4.513,10Q8.308,6.135,12.1,2.27A1.291,1.291,0,0,0,12.462.882,1.254,1.254,0,0,0,10.44.309c-0.075.064-.143,0.137-0.213,0.208L0.7,10.267q-0.139.142-.281,0.281a1.287,1.287,0,0,0,.1,1.985,2.088,2.088,0,0,1,.187.178l9.625,9.849a1.243,1.243,0,0,0,1.508.3,1.333,1.333,0,0,0,.405-2C12.18,20.777,12.1,20.7,12.03,20.627Q8.266,16.789,4.5,12.954a1.245,1.245,0,0,0-.177-0.128l0.034-.071H43.7a1.273,1.273,0,0,0,.243-2.531c-0.124-.011-0.249-0.01-0.374-0.01H4.374Zm49.44,0.08A1.27,1.27,0,1,0,55,11.5,1.262,1.262,0,0,0,53.758,10.215Zm-5.011,0A1.27,1.27,0,1,0,50,11.485,1.262,1.262,0,0,0,48.747,10.215Z"/>
</svg>
