<?xml version="1.0" encoding="utf-8"?>
<!-- Generator: Adobe Illustrator 24.0.2, SVG Export Plug-In . SVG Version: 6.00 Build 0)  -->
<svg version="1.1" id="Слой_1" xmlns="http://www.w3.org/2000/svg" xmlns:xlink="http://www.w3.org/1999/xlink" x="0px" y="0px"
	 viewBox="0 0 20 13" style="enable-background:new 0 0 20 13;" xml:space="preserve">
<style type="text/css">
	.st0{fill-rule:evenodd;clip-rule:evenodd;}
</style>
<path id="arrow" class="st0" d="M9.58,7.68l-0.29-0.3C7.1,5.17,4.92,2.96,2.73,0.74C2.56,0.53,2.28,0.43,2.01,0.47
	c-0.15,0.02-0.3,0.09-0.41,0.2C1.19,1.1,0.76,1.53,0.35,1.97c-0.29,0.32-0.28,0.8,0.01,1.11c0.28,0.3,0.57,0.59,0.86,0.88l6.88,7.09
	l0.91,0.94c0.28,0.31,0.77,0.34,1.08,0.06c0.02-0.02,0.04-0.04,0.06-0.06l8.11-8.35l0.52-0.53c0.32-0.33,0.32-0.85,0-1.17
	c-0.39-0.4-0.78-0.8-1.16-1.2c-0.29-0.33-0.8-0.36-1.13-0.06c-0.02,0.02-0.04,0.04-0.06,0.06c-1,1.03-2.01,2.04-3.02,3.06L9.63,7.64
	C9.61,7.65,9.6,7.67,9.58,7.68z"/>
</svg>
