<?xml version="1.0" encoding="utf-8"?>
<!-- Generator: Adobe Illustrator 24.0.2, SVG Export Plug-In . SVG Version: 6.00 Build 0)  -->
<svg version="1.1" id="Слой_1" xmlns="http://www.w3.org/2000/svg" xmlns:xlink="http://www.w3.org/1999/xlink" x="0px" y="0px"
	 viewBox="0 0 20 13" style="enable-background:new 0 0 20 13;" xml:space="preserve">
<style type="text/css">
	.st0{fill-rule:evenodd;clip-rule:evenodd;}
</style>
<path id="arrow" class="st0" d="M9.58,5.03l0.29,0.3c2.18,2.21,4.37,4.43,6.55,6.64c0.18,0.21,0.45,0.31,0.72,0.27
	c0.15-0.02,0.3-0.09,0.41-0.2c0.42-0.43,0.84-0.86,1.26-1.3c0.29-0.32,0.28-0.8-0.01-1.11c-0.28-0.3-0.57-0.59-0.85-0.88l-6.88-7.09
	l-0.91-0.94C9.86,0.4,9.37,0.38,9.06,0.66C9.04,0.68,9.02,0.7,9.01,0.72L0.9,9.06L0.38,9.59c-0.32,0.33-0.32,0.85,0,1.17
	c0.39,0.4,0.78,0.8,1.16,1.2c0.29,0.33,0.8,0.36,1.13,0.06c0.02-0.02,0.04-0.04,0.06-0.06c1-1.03,2.01-2.04,3.02-3.06l3.78-3.84
	C9.54,5.06,9.56,5.04,9.58,5.03z"/>
</svg>
