<svg xmlns="http://www.w3.org/2000/svg" width="13" height="20" viewBox="0 0 13 20">
  <defs>
    <style>
      .cls-1 {
        fill-rule: evenodd;
      }
    </style>
  </defs>
  <path id="arrow" class="cls-1" d="M7.474,10.335l-0.3-.293Q3.854,6.766.53,3.493A0.8,0.8,0,0,1,.262,2.771a0.7,0.7,0,0,1,.2-0.407c0.432-.42.862-0.843,1.3-1.256a0.823,0.823,0,0,1,1.114.013c0.3,0.28.589,0.57,0.883,0.855l7.081,6.88,0.937,0.912a0.766,0.766,0,0,1,0,1.137L3.437,19.014l-0.532.517a0.835,0.835,0,0,1-1.173,0c-0.4-.387-0.8-0.781-1.205-1.159A0.8,0.8,0,0,1,.52,17.187c1.027-1,2.043-2.009,3.063-3.015l3.844-3.788C7.443,10.37,7.457,10.354,7.474,10.335Z"/>
</svg>
