<svg xmlns="http://www.w3.org/2000/svg" width="17" height="19" viewBox="0 0 17 19">
  <defs>
    <style>
      .cls-1 {
        fill: #ffd000;
        fill-rule: evenodd;
      }
    </style>
  </defs>
  <path id="Back" class="cls-1" d="M8.035,18.916H8.009C7.839,18.9,7.668,18.88,7.5,18.861A7.5,7.5,0,0,1,5.13,18.2a7.751,7.751,0,0,1-3.747-3.658,7.38,7.38,0,0,1-.751-2.63A7.643,7.643,0,0,1,2.4,6.119,7.593,7.593,0,0,1,6.884,3.457c0.325-.065.656-0.1,0.994-0.144A0.257,0.257,0,0,0,8.1,3.059V0.882A0.257,0.257,0,0,1,8.5.665l5.611,3.566a0.257,0.257,0,0,1-.015.442l-5.6,3.053A0.257,0.257,0,0,1,8.11,7.5V5.327a0.256,0.256,0,0,0-.275-0.256,6.069,6.069,0,1,0,6.622,6.575,0.257,0.257,0,0,1,.256-0.235h1.225a0.256,0.256,0,0,1,.256.271c0,0.056-.008.111-0.014,0.167A7.719,7.719,0,0,1,12.427,17.8a7.334,7.334,0,0,1-2.966,1.044c-0.2.026-.4,0.039-0.6,0.059a0.539,0.539,0,0,0-.056.01,0.256,0.256,0,0,1-.052.005H8.035Z"/>
</svg>
