<svg xmlns="http://www.w3.org/2000/svg" width="25" height="15" viewBox="0 0 25 15">
  <defs>
    <style>
      .cls-1 {
        fill-rule: evenodd;
      }
    </style>
  </defs>
  <path id="Be" class="cls-1" d="M9.588,14.262A4.022,4.022,0,0,0,12.273,12.4a4.205,4.205,0,0,0,.65-2.307,3.8,3.8,0,0,0-.569-2.119,3.253,3.253,0,0,0-1.688-1.277,3.481,3.481,0,0,0,1.115-.824,3.2,3.2,0,0,0,.677-2.13,3.656,3.656,0,0,0-.671-2.208A4.5,4.5,0,0,0,8-.008H0.94V14.458H7.523A10.205,10.205,0,0,0,9.588,14.262ZM3.854,2.5H7.032a5.525,5.525,0,0,1,1.726.226,1.293,1.293,0,0,1,.785,1.334A1.361,1.361,0,0,1,8.95,5.336,2.958,2.958,0,0,1,7.4,5.694H3.854V2.5Zm0,9.442V8.089h3.6a3.71,3.71,0,0,1,1.461.245,1.551,1.551,0,0,1,.931,1.55,1.819,1.819,0,0,1-.96,1.807,3.471,3.471,0,0,1-1.479.255H3.854ZM15.4,13.5a5.92,5.92,0,0,0,3.8,1.317,5.271,5.271,0,0,0,4.064-1.561,3.482,3.482,0,0,0,1.048-1.933H21.43a2.342,2.342,0,0,1-.581.735,2.4,2.4,0,0,1-1.568.492,2.885,2.885,0,0,1-1.557-.4,2.559,2.559,0,0,1-1.13-2.258h7.868a13.555,13.555,0,0,0-.093-2.123,5.22,5.22,0,0,0-.861-2.211A4.374,4.374,0,0,0,21.64,3.977a6.2,6.2,0,0,0-2.54-.5,5.236,5.236,0,0,0-3.862,1.483,5.756,5.756,0,0,0-1.488,4.262A5.162,5.162,0,0,0,15.4,13.5Zm2.018-7.112A2.257,2.257,0,0,1,19.1,5.783a2.5,2.5,0,0,1,1.676.576,2.327,2.327,0,0,1,.752,1.691H16.663A2.9,2.9,0,0,1,17.415,6.393Zm4.675-5.57H15.742v1.46H22.09V0.823Z"/>
</svg>
