<svg xmlns="http://www.w3.org/2000/svg" width="18" height="17" viewBox="0 0 18 17">
  <defs>
    <style>
      .cls-1 {
        fill: #b4b4b4;
        fill-rule: evenodd;
      }
    </style>
  </defs>
  <path id="calendar" class="cls-1" d="M5.468,5.063a0.935,0.935,0,0,0,.925-0.945V1.749a0.925,0.925,0,1,0-1.85,0V4.118A0.935,0.935,0,0,0,5.468,5.063Zm7.066,0a0.935,0.935,0,0,0,.925-0.945V1.749a0.925,0.925,0,1,0-1.85,0V4.118A0.935,0.935,0,0,0,12.534,5.063Zm4.121-2.891h-1.7a0.756,0.756,0,0,0,0,1.512h0.965V6.754H2.077V3.684H3.042a0.756,0.756,0,0,0,0-1.512H1.337a0.748,0.748,0,0,0-.74.756v12.51a0.749,0.749,0,0,0,.74.756H16.655a0.749,0.749,0,0,0,.74-0.756V2.928A0.748,0.748,0,0,0,16.655,2.172ZM2.077,14.682V7.888H15.915v6.794H2.077Zm5.768-11h2.3a0.756,0.756,0,0,0,0-1.512h-2.3A0.756,0.756,0,0,0,7.845,3.684Z"/>
</svg>
