<?xml version="1.0" encoding="utf-8"?>
<!-- Generator: Adobe Illustrator 23.0.1, SVG Export Plug-In . SVG Version: 6.00 Build 0)  -->
<svg version="1.1" id="Слой_1" xmlns="http://www.w3.org/2000/svg" xmlns:xlink="http://www.w3.org/1999/xlink" x="0px" y="0px"
	 viewBox="0 0 22 22" style="enable-background:new 0 0 22 22;" xml:space="preserve">
<style type="text/css">
	.st0{fill-rule:evenodd;clip-rule:evenodd;fill:none;}
</style>
<path class="st0" d="M0.6,18.6L18.6,0.6c0.8-0.8,2-0.8,2.8,0c0.8,0.8,0.8,2,0,2.8L3.4,21.4c-0.8,0.8-2,0.8-2.8,0
	C-0.2,20.7-0.2,19.4,0.6,18.6z"/>
<path class="st0" d="M0.6,0.6c0.8-0.8,2-0.8,2.8,0l18.1,18.1c0.8,0.8,0.8,2,0,2.8c-0.8,0.8-2,0.8-2.8,0L0.6,3.4
	C-0.2,2.6-0.2,1.3,0.6,0.6z"/>
</svg>
