<?xml version="1.0" encoding="utf-8"?>
<!-- Generator: Adobe Illustrator 23.0.1, SVG Export Plug-In . SVG Version: 6.00 Build 0)  -->
<svg version="1.1" id="Слой_1" xmlns="http://www.w3.org/2000/svg" xmlns:xlink="http://www.w3.org/1999/xlink" x="0px" y="0px"
	 viewBox="0 0 30 30" style="enable-background:new 0 0 30 30;" xml:space="preserve">
<path d="M6.7,22.2c-0.3-0.7-0.6-1.3-0.9-2c-0.5-1.4-0.7-2.8-0.8-4.3c0-1,0-2,0.2-2.9c0.1-0.6,0.3-0.7,0.9-0.7c5.9,0,11.9,0,17.8,0
	c2,0,3.5,0.9,4.4,2.7c1.3,2.6-0.2,5.9-3.1,6.6c-0.5,0.1-1,0.1-1.5,0.2c-0.4,0-0.4,0-0.6,0.4c0.3,0.1,0.6,0.1,0.9,0.2
	c1.4,0.3,2.7,0.6,4,1.2c0.5,0.2,1,0.5,1.4,0.9c0.8,0.8,0.7,1.8-0.2,2.5c-0.9,0.7-2,1.1-3.1,1.4c-2.2,0.6-4.4,0.9-6.6,1.1
	c-2.9,0.2-5.7,0.2-8.6,0c-2.5-0.2-4.9-0.5-7.3-1.2c-1-0.3-2.1-0.7-2.9-1.4c-0.9-0.7-1-1.7-0.2-2.5c0.3-0.3,0.6-0.5,0.9-0.7
	c1-0.6,2.2-0.9,3.3-1.2C5.4,22.4,6.1,22.3,6.7,22.2z M6.4,13.4c0,0.1,0,0.1,0,0.1c-0.2,1.2-0.1,2.3,0,3.5c0.1,1.2,0.4,2.3,0.9,3.4
	c1,2.2,2.6,3.6,4.9,4.2c1.5,0.4,3.1,0.4,4.6,0.2c2.5-0.4,4.5-1.6,5.7-3.9c0.2-0.5,0.4-0.5,0.9-0.5c2.4,0.5,4.6-1.7,4.2-4.1
	c-0.3-1.8-1.8-3-3.6-3c-5.8,0-11.5,0-17.3,0C6.6,13.4,6.5,13.4,6.4,13.4z M15.3,28.4c2.8,0,6-0.2,9.1-0.9c1.2-0.3,2.4-0.5,3.5-1.1
	c0.3-0.1,0.5-0.3,0.7-0.5c0.2-0.2,0.2-0.4,0-0.6c-0.4-0.4-0.9-0.7-1.5-0.9c-1.5-0.6-3.1-0.9-4.6-1.1c-0.1,0-0.2,0.1-0.3,0.1
	c-0.5,0.4-0.9,0.8-1.4,1.2c-1,0.7-2.2,1.2-3.5,1.4c-1.3,0.2-2.6,0.3-3.9,0.1c-2.2-0.2-4.1-1.1-5.7-2.7c-0.1-0.1-0.2-0.1-0.3-0.1
	c-1.6,0.2-3.1,0.5-4.6,1.1c-0.5,0.2-1,0.4-1.4,0.8c-0.3,0.3-0.3,0.5,0,0.7c0.4,0.3,0.8,0.5,1.2,0.7c1.4,0.6,2.9,0.9,4.5,1.2
	C9.7,28.3,12.3,28.4,15.3,28.4z"/>
<path d="M12.6,3.8c0,0.3-0.1,0.6-0.3,0.7c-0.2,0.1-0.5,0.1-0.6-0.1c-0.1-0.2-0.2-0.4-0.2-0.6c-0.1-0.3-0.2-0.7-0.3-1
	c-0.4-0.7-1-1-1.7-1.1c-0.1,0-0.2,0-0.3,0C8.7,1.5,8.5,1.3,8.5,0.9c0-0.3,0.3-0.6,0.6-0.5c0.3,0,0.6,0.1,0.9,0.1
	C11.5,0.9,12.6,2.3,12.6,3.8z"/>
<path d="M19.6,6.6c0,0.6-0.3,0.9-0.7,0.8c-0.3-0.1-0.4-0.2-0.4-0.5c0-0.3-0.1-0.5-0.1-0.8c-0.3-0.9-1.1-1.6-2-1.6
	c-0.3,0-0.6-0.1-0.7-0.4c-0.1-0.4,0.2-0.8,0.7-0.8c1.4,0.1,2.4,0.7,3,2C19.5,5.7,19.6,6.1,19.6,6.6z"/>
<path d="M14.8,10.8c-1.9-0.1-3.3-1.6-3.4-3.4c0-0.5,0.3-0.8,0.8-0.7c0.3,0.1,0.4,0.3,0.4,0.6C12.7,7.6,12.8,8,13,8.3
	c0.4,0.7,1,1.1,1.8,1.2c0.3,0,0.6,0.1,0.7,0.4C15.7,10.4,15.4,10.8,14.8,10.8z"/>
<path d="M24.6,14.2c-0.5-0.1-0.8,0.1-0.8,0.6c0,1.4-0.1,2.8-0.5,4.2c-0.1,0.4,0.1,0.7,0.6,0.8c0.1,0,0.2,0,0.3,0c0,0,0,0,0,0
	c0.3-0.1,0.6-0.1,0.9-0.2c1.1-0.3,1.9-1.6,1.9-2.7C26.8,15.5,25.9,14.5,24.6,14.2z M25.7,17.3c-0.1,0.6-0.6,1.1-1,1.2
	c0.1-1,0.2-1.9,0.3-2.9C25.5,15.9,25.8,16.6,25.7,17.3z"/>
<path d="M11.7,23.2c-0.2-0.1-0.5-0.2-0.7-0.4c-1.4-0.8-2.3-2.1-2.9-3.6c-0.1-0.3,0-0.7,0.3-0.8c0.3-0.1,0.6,0,0.8,0.3
	c0.3,0.6,0.6,1.3,1,1.8c0.4,0.5,1,1,1.6,1.3c0.1,0.1,0.3,0.1,0.4,0.2c0.2,0.2,0.3,0.4,0.2,0.7C12.3,23.1,12.1,23.2,11.7,23.2z"/>
<path d="M7.4,15.9c-0.1-0.6,0.4-0.8,0.8-0.7c0.3,0.1,0.4,0.3,0.4,0.5c0,0.3,0.1,0.6,0.1,1c0,0.4-0.2,0.7-0.5,0.7
	c-0.3,0-0.6-0.2-0.7-0.6c0-0.2,0-0.5-0.1-0.7C7.4,16.1,7.4,16,7.4,15.9z"/>
</svg>
