<svg xmlns="http://www.w3.org/2000/svg" width="24" height="24" viewBox="0 0 24 24">
  <defs>
    <style>
      .cls-1 {
        fill-rule: evenodd;
      }
    </style>
  </defs>
  <path id="drib" class="cls-1" d="M11.872,0.012A11.869,11.869,0,1,0,23.74,11.881,11.869,11.869,0,0,0,11.872.012Zm0,2.064a9.747,9.747,0,0,1,5.977,2.05,12,12,0,0,1-4.932,3.639A45.537,45.537,0,0,0,9.468,2.388,9.725,9.725,0,0,1,11.872,2.076ZM7.449,3.143a44.122,44.122,0,0,1,3.5,5.322,31.473,31.473,0,0,1-8.59,1.094A9.833,9.833,0,0,1,7.449,3.143ZM2.068,11.88c0-.085.011-0.168,0.013-0.253a33.141,33.141,0,0,0,9.84-1.308q0.346,0.7.663,1.417a15.274,15.274,0,0,0-8.245,6.409A9.757,9.757,0,0,1,2.068,11.88Zm9.8,9.8a9.742,9.742,0,0,1-6.016-2.079,13.322,13.322,0,0,1,7.514-5.961,38.792,38.792,0,0,1,2.021,7.378A9.739,9.739,0,0,1,11.872,21.685Zm5.442-1.655a40.717,40.717,0,0,0-1.9-6.821,19.713,19.713,0,0,1,6.131.194A9.806,9.806,0,0,1,17.314,20.03Zm-2.69-8.774c-0.241-.557-0.491-1.112-0.759-1.662a14.027,14.027,0,0,0,5.488-4.036,9.762,9.762,0,0,1,2.3,5.771A21.2,21.2,0,0,0,14.624,11.255Z"/>
</svg>
