<svg xmlns="http://www.w3.org/2000/svg" width="23" height="25" viewBox="0 0 23 25">
  <defs>
    <style>
      .cls-1 {
        fill-rule: evenodd;
      }
    </style>
  </defs>
  <path id="like" class="cls-1" d="M14.047,1.018a0.375,0.375,0,0,0-.28.238,3.278,3.278,0,0,0-.038.347c-0.049.684-.2,1.855-0.309,2.373a5.976,5.976,0,0,1-.759,1.963,4.181,4.181,0,0,1-.967.977,5.742,5.742,0,0,0-.757.692,3.127,3.127,0,0,0-.6,1.056,20.254,20.254,0,0,1-1.451,3,4.519,4.519,0,0,1-1.415,1.618,1.052,1.052,0,0,1-.681.17,2.547,2.547,0,0,0-.3.013c-0.005.005-.016,9.16-0.009,9.409,0,0.047-.107.024,1.87,0.386,0.408,0.074,1.021.188,1.364,0.253a14.912,14.912,0,0,0,2.087.341c0.21,0.016.461,0.036,0.56,0.045,0.54,0.047,1.346.089,2.539,0.126,0.323,0.011.7,0.027,0.831,0.036,0.311,0.024,1.2.024,1.446,0,0.1-.009.349-0.025,0.542-0.036a3.835,3.835,0,0,0,2.105-.517,4.768,4.768,0,0,0,1.193-1.154,1.2,1.2,0,0,0,.143-0.867,2.1,2.1,0,0,1,.036-0.65,2.063,2.063,0,0,1,.56-0.7,1.606,1.606,0,0,0,.716-1.141,2.156,2.156,0,0,0-.226-0.775c-0.076-.188-0.159-0.4-0.183-0.479a1.077,1.077,0,0,1-.045-0.5,2.26,2.26,0,0,1,.452-0.639,2.337,2.337,0,0,0,.473-0.654,0.3,0.3,0,0,0,.009-0.314,3.509,3.509,0,0,0-.378-0.719,1.876,1.876,0,0,1-.352-0.769,1.028,1.028,0,0,1,.354-0.73,2.454,2.454,0,0,0,.369-0.578,0.7,0.7,0,0,0-.061-0.634,3.729,3.729,0,0,0-1.278-1.7c-0.439-.247-1.231-0.325-3.508-0.343-0.858-.007-1.574,0-2.075.011a3.4,3.4,0,0,1-.793,0A1.055,1.055,0,0,1,15.148,9.4a4.638,4.638,0,0,1,.219-0.789c0.1-.278.271-0.641,0.689-1.486A8.046,8.046,0,0,0,16.639,5.8a8.607,8.607,0,0,0,.2-0.849,6.032,6.032,0,0,0,.036-1.017,3.215,3.215,0,0,0-.108-0.793,2.6,2.6,0,0,0-.754-1.427,2.443,2.443,0,0,0-1.22-.666C14.728,1.04,14.627,1.015,14.564,1A0.8,0.8,0,0,0,14.047,1.018Zm-12.377,12a0.9,0.9,0,0,0-.685.587,0.263,0.263,0,0,1-.052.108c-0.009,0-.016,1.851-0.016,4.587,0,2.958.005,4.587,0.018,4.587a0.2,0.2,0,0,1,.045.1,0.913,0.913,0,0,0,.625.582,10.923,10.923,0,0,0,1.615.032,10.119,10.119,0,0,0,1.616-.032A0.894,0.894,0,0,0,5.5,22.893c0.031-.116.033-0.394,0.033-4.593s0-4.477-.031-4.593a0.887,0.887,0,0,0-.732-0.69C4.569,12.982,1.853,12.982,1.671,13.018Z"/>
</svg>
