<?xml version="1.0" encoding="utf-8"?>
<!-- Generator: Adobe Illustrator 23.0.1, SVG Export Plug-In . SVG Version: 6.00 Build 0)  -->
<svg version="1.1" id="Слой_1" xmlns="http://www.w3.org/2000/svg" xmlns:xlink="http://www.w3.org/1999/xlink" x="0px" y="0px"
	 viewBox="0 0 24 32" style="enable-background:new 0 0 24 32;" xml:space="preserve">
<path d="M12,0C5.4,0,0,5.5,0,12.2c0,4.3,1.3,6.1,7.5,14.4c1.1,1.5,2.3,3.1,3.7,5c0.2,0.2,0.4,0.4,0.7,0.4c0.3,0,0.6-0.1,0.7-0.4
	c1.4-1.9,2.6-3.5,3.7-5c6.3-8.4,7.6-10.1,7.6-14.4C24,5.5,18.6,0,12,0z M15,25.5c-0.9,1.2-1.9,2.5-3,4c-1.1-1.5-2.1-2.8-3-4
	c-6.1-8.1-7.2-9.6-7.2-13.3C1.8,6.5,6.4,1.9,12,1.9c5.6,0,10.2,4.6,10.2,10.3C22.1,15.9,21.1,17.3,15,25.5z"/>
<path d="M12,5.6c-3.6,0-6.5,2.9-6.5,6.6c0,3.6,2.9,6.6,6.5,6.6c3.6,0,6.5-2.9,6.5-6.6C18.5,8.6,15.6,5.6,12,5.6z M12,16.9
	c-2.5,0-4.6-2.1-4.6-4.7c0-2.6,2.1-4.7,4.6-4.7c2.5,0,4.6,2.1,4.6,4.7C16.6,14.8,14.5,16.9,12,16.9z"/>
</svg>
