<svg xmlns="http://www.w3.org/2000/svg" width="23" height="16" viewBox="0 0 23 16">
  <defs>
    <style>
      .cls-1 {
        fill: #868686;
        fill-rule: evenodd;
      }
    </style>
  </defs>
  <path id="e-mail" class="cls-1" d="M18.959,3.006L11.7,9.46,4.45,3.006a0.692,0.692,0,0,0-.984.062,0.709,0.709,0,0,0,.062.994l7.716,6.863a0.691,0.691,0,0,0,.921,0L19.88,4.062a0.709,0.709,0,0,0,.062-0.994,0.692,0.692,0,0,0-.983-0.062h0Zm0,0,1.854-2.99H2.6A2.1,2.1,0,0,0,.5,2.127V13.291A2.1,2.1,0,0,0,2.6,15.4H20.813A2.1,2.1,0,0,0,22.9,13.291V2.127A2.1,2.1,0,0,0,20.813.016h0Zm0.7,13.275a0.7,0.7,0,0,1-.7.7H2.6a0.7,0.7,0,0,1-.7-0.7V2.127a0.7,0.7,0,0,1,.7-0.7H20.813a0.7,0.7,0,0,1,.7.7V13.291Zm0,0"/>
</svg>
