<svg xmlns="http://www.w3.org/2000/svg" width="35" height="21" viewBox="0 0 35 21">
  <defs>
    <style>
      .cls-1 {
        fill-rule: evenodd;
      }
    </style>
  </defs>
  <path id="e-mail" class="cls-1" d="M19.815,0.576q6.157,0,12.314,0a2.257,2.257,0,0,1,2.383,2.346c0.023,1.9.01,3.8,0.011,5.705,0,2.361.008,4.721,0,7.081,0,1.095.022,2.195-.078,3.282a2.127,2.127,0,0,1-2.122,1.864c-2.326.023-4.652,0.021-6.978,0.022s-4.63-.007-6.945-0.009q-3.993,0-7.985,0c-1.051,0-2.1.017-3.154,0.007a0.771,0.771,0,0,1-.8-1.069,0.815,0.815,0,0,1,.867-0.49H31.954a0.833,0.833,0,0,0,1-1.008c0.008-1.119.01-2.237,0.01-3.356q0-3.977,0-7.954,0-1.913,0-3.826A0.872,0.872,0,0,0,31.915,2.13H7.484c-0.123,0-.247.005-0.369-0.007A0.744,0.744,0,0,1,6.4,1.344,0.74,0.74,0,0,1,7.166.585Q10,0.568,12.837.569q3.489,0,6.979,0V0.576Zm0.7,11.643a4.265,4.265,0,0,1-2.6-.936q-3.826-2.914-7.662-5.814C10.106,5.361,9.96,5.258,9.818,5.15a0.8,0.8,0,0,1-.19-1.169,0.749,0.749,0,0,1,1.1-.109c0.41,0.29.8,0.606,1.2,0.911q3.462,2.644,6.925,5.287a2.471,2.471,0,0,0,3.2-.038c1.865-1.441,3.744-2.865,5.616-4.3,0.772-.59,1.538-1.188,2.321-1.764A1.376,1.376,0,0,1,30.6,3.737a0.629,0.629,0,0,1,.7.41,0.721,0.721,0,0,1-.147.864c-0.285.265-.6,0.5-0.91,0.739-2.315,1.773-4.636,3.537-6.946,5.317a4.6,4.6,0,0,1-2.219,1.09C20.888,12.181,20.7,12.2,20.511,12.219Zm5.447-.766a3.092,3.092,0,0,1,.6.37q2.255,2.229,4.484,4.483a0.78,0.78,0,0,1-.294,1.421,0.792,0.792,0,0,1-.774-0.285q-1.885-1.885-3.766-3.774c-0.268-.269-0.546-0.529-0.807-0.8a0.759,0.759,0,0,1-.173-0.891A0.867,0.867,0,0,1,25.957,11.453Zm-19.538.067c-1,0-1.991.008-2.986,0A0.8,0.8,0,0,1,2.5,10.637a0.651,0.651,0,0,1,.6-0.653,10.313,10.313,0,0,1,1.1-.055q2.516-.006,5.032.006a2.471,2.471,0,0,1,.431.044,0.659,0.659,0,0,1,.623.727,0.655,0.655,0,0,1-.622.764c-0.633.053-1.271,0.041-1.907,0.05C7.314,11.526,6.867,11.521,6.419,11.521Zm-2.372-5.5c0.995,0,1.989-.008,2.984,0a0.785,0.785,0,0,1,.914.918,0.644,0.644,0,0,1-.591.62C6.775,7.6,6.194,7.6,5.614,7.605c-1.441.005-2.883,0-4.324,0A3.525,3.525,0,0,1,.856,7.574a0.721,0.721,0,0,1-.7-0.716A0.7,0.7,0,0,1,.8,6.063a11.273,11.273,0,0,1,1.3-.039c0.648,0,1.3,0,1.944,0v0Zm4.687,7.851c1.084,0,2.167-.01,3.251.005a0.647,0.647,0,0,1,.652.633,0.73,0.73,0,0,1-.536.846,1.723,1.723,0,0,1-.427.062q-2.935.007-5.87,0a0.79,0.79,0,0,1-.955-0.85,0.68,0.68,0,0,1,.635-0.691c0.546-.028,1.094-0.026,1.641-0.03s1.073,0,1.61,0v0.024Z"/>
</svg>
