<svg xmlns="http://www.w3.org/2000/svg" width="23" height="19" viewBox="0 0 23 19">
  <defs>
    <style>
      .cls-1 {
        fill-rule: evenodd;
      }
    </style>
  </defs>
  <path id="e-mail" class="cls-1" d="M11.506,0.6c-3.056,0-6.112.007-9.168,0a2.132,2.132,0,0,0-1.921.972A2.137,2.137,0,0,0,.159,3.192,4.018,4.018,0,0,0,1.542,5.5,19.3,19.3,0,0,0,3.269,6.807C4.479,7.662,5.7,8.5,6.92,9.345c1.013,0.7,2.024,1.409,3.047,2.1a4.773,4.773,0,0,0,.842.418,1.888,1.888,0,0,0,1.714-.139c0.631-.361,1.24-0.765,1.841-1.177,1.1-.75,2.177-1.521,3.266-2.28,1.065-.743,2.141-1.47,3.195-2.228a5.553,5.553,0,0,0,1.837-2.159,2.47,2.47,0,0,0-.175-2.447A1.718,1.718,0,0,0,20.958.606C20.145,0.591,19.332.6,18.519,0.6H11.506ZM22.179,17.746l-6.454-6.454c-0.086.059-.183,0.125-0.278,0.193a12.989,12.989,0,0,1-2.128,1.384,5,5,0,0,1-1.521.474A3.754,3.754,0,0,1,9.983,13a10.63,10.63,0,0,1-2.234-1.377C7.592,11.511,7.432,11.4,7.283,11.3L0.833,17.75a1.843,1.843,0,0,0,1.285.492q4.885,0,9.77,0h8.969A1.9,1.9,0,0,0,22.179,17.746Zm0.442-1.86V6.165L22.586,6.14c-0.081.089-.158,0.182-0.243,0.267a12.922,12.922,0,0,1-1.919,1.434L17.1,10.129c-0.048.033-.092,0.071-0.133,0.1Zm-22.235.007,5.656-5.658c-0.256-.18-0.522-0.372-0.793-0.557C4.023,8.836,2.788,8.006,1.571,7.152,1.152,6.858.777,6.5,0.386,6.18v9.712Z"/>
</svg>
