<svg xmlns="http://www.w3.org/2000/svg" width="22" height="23" viewBox="0 0 22 23">
  <defs>
    <style>
      .cls-1 {
        fill: #868686;
        fill-rule: evenodd;
      }
    </style>
  </defs>
  <path id="phone" class="cls-1" d="M12.142,3.579,9.007,10.444m9.2-6.865a9.507,9.507,0,0,0-6.8-2.843,0.769,0.769,0,0,0,0,1.538,8,8,0,0,1,5.722,2.393A8.156,8.156,0,0,1,19.5,10.444a0.762,0.762,0,1,0,1.524,0A9.691,9.691,0,0,0,18.208,3.579Zm-3.135,6.865a0.762,0.762,0,1,0,1.524,0A5.22,5.22,0,0,0,11.408,5.2a0.769,0.769,0,0,0,0,1.538A3.687,3.687,0,0,1,15.074,10.444Zm-1.686,3.922a2.3,2.3,0,0,0-2.037,1.23,0.774,0.774,0,0,0,.2,1.069,0.757,0.757,0,0,0,1.059-.2A0.823,0.823,0,0,1,13.3,15.9a9.825,9.825,0,0,1,3.517,2.6,0.8,0.8,0,0,1-.008.562,2.646,2.646,0,0,1-1.305,1.66,2.421,2.421,0,0,1-1.958-.067,21.518,21.518,0,0,1-7.064-4.643l0,0A21.755,21.755,0,0,1,1.891,8.889a2.491,2.491,0,0,1-.066-1.978A2.636,2.636,0,0,1,3.469,5.594a0.778,0.778,0,0,1,.555-0.008A9.928,9.928,0,0,1,6.6,9.13a0.825,0.825,0,0,1-.557.706,0.775,0.775,0,0,0-.2,1.07,0.758,0.758,0,0,0,1.059.2A2.323,2.323,0,0,0,8.123,9.049c-0.066-1.23-2.434-4.484-3.565-4.9a2.283,2.283,0,0,0-1.574-.009A4.112,4.112,0,0,0,.439,6.271a3.993,3.993,0,0,0,.04,3.2A23.276,23.276,0,0,0,5.406,17.1l0.016,0.016a23.019,23.019,0,0,0,7.551,4.965,4.472,4.472,0,0,0,1.7.359,3.46,3.46,0,0,0,1.467-.318,4.126,4.126,0,0,0,2.115-2.569,2.346,2.346,0,0,0-.008-1.585C17.831,16.823,14.607,14.433,13.388,14.366Z"/>
</svg>
