<?xml version="1.0" encoding="utf-8"?>
<!-- Generator: Adobe Illustrator 23.0.1, SVG Export Plug-In . SVG Version: 6.00 Build 0)  -->
<svg version="1.1" id="Слой_1" xmlns="http://www.w3.org/2000/svg" xmlns:xlink="http://www.w3.org/1999/xlink" x="0px" y="0px"
	 viewBox="0 0 25 25" style="enable-background:new 0 0 25 25;" xml:space="preserve">
<path d="M22.4,15.2c-0.9-0.1-1.7-0.3-2.6-0.5c-1-0.3-2.2,0-2.9,0.7L15.3,17c-3.1-1.7-5.6-4.2-7.3-7.3l1.6-1.6c0.8-0.8,1-1.9,0.7-2.9
	c-0.3-0.8-0.4-1.7-0.5-2.6C9.6,1.1,8.4,0,6.9,0H2.9C2.1,0,1.3,0.3,0.8,1C0.3,1.5,0,2.2,0,2.9C0,3,0,3.1,0,3.2C0.3,6,1,8.8,2.2,11.3
	C3.4,13.8,5,16,7,18c2,2,4.2,3.5,6.7,4.7c2.6,1.2,5.3,2,8.1,2.2c0.8,0.1,1.6-0.2,2.3-0.8c0.6-0.6,1-1.3,1-2.2v-3.9
	C25,16.6,23.9,15.3,22.4,15.2z"/>
</svg>
