<svg xmlns="http://www.w3.org/2000/svg" width="22" height="23" viewBox="0 0 22 23">
  <defs>
    <style>
      .cls-1 {
        fill: #868686;
        fill-rule: evenodd;
      }
    </style>
  </defs>
  <path id="person" class="cls-1" d="M18.705,14.516a10.443,10.443,0,0,0-3.992-2.539,6.2,6.2,0,0,0,2.571-6A6.069,6.069,0,0,0,5.2,6.9a6.184,6.184,0,0,0,2.637,5.076,10.443,10.443,0,0,0-3.992,2.539,10.641,10.641,0,0,0-3.04,6.639,0.821,0.821,0,1,0,1.637.133,8.926,8.926,0,0,1,8.832-8.228,8.926,8.926,0,0,1,8.832,8.228,0.821,0.821,0,1,0,1.637-.133A10.641,10.641,0,0,0,18.705,14.516Zm-7.428-3.121A4.5,4.5,0,1,1,15.709,6.9,4.468,4.468,0,0,1,11.277,11.395Zm0,0"/>
</svg>
