<svg xmlns="http://www.w3.org/2000/svg" width="19" height="19" viewBox="0 0 19 19">
  <defs>
    <style>
      .cls-1 {
        fill-rule: evenodd;
      }
    </style>
  </defs>
  <path id="share" class="cls-1" d="M18.208,15.2v0.566a0.878,0.878,0,0,0-.017.087A3.06,3.06,0,0,1,17,18.011a3.223,3.223,0,0,1-5.223-2.549,0.269,0.269,0,0,0-.181-0.284c-0.991-.48-1.979-0.969-2.967-1.457q-1.65-.814-3.3-1.631a0.131,0.131,0,0,0-.156.009c-0.093.067-.191,0.127-0.288,0.188a3.028,3.028,0,0,1-2.429.434A3.067,3.067,0,0,1,.069,10.293C0.034,10.143.022,9.988,0,9.835V9.228c0.016-.1.031-0.2,0.05-0.3A3.2,3.2,0,0,1,1.644,6.761,2.768,2.768,0,0,1,3.03,6.406a2.9,2.9,0,0,1,1.533.278c0.215,0.118.417,0.26,0.622,0.4a0.133,0.133,0,0,0,.154.012C5.86,6.83,6.384,6.574,6.906,6.316Q9.295,5.137,11.684,3.96A0.143,0.143,0,0,0,11.777,3.8a3.019,3.019,0,0,1,.01-0.434A3.213,3.213,0,0,1,13.06,1.119,3.088,3.088,0,0,1,15.578.526a3.142,3.142,0,0,1,2.553,2.45c0.031,0.148.052,0.3,0.077,0.447V3.969a0.583,0.583,0,0,0-.017.077,2.928,2.928,0,0,1-.8,1.794,3.2,3.2,0,0,1-2.717,1.055,2.681,2.681,0,0,1-1.487-.577A0.36,0.36,0,0,0,12.7,6.274a0.449,0.449,0,0,1-.063.031Q9.654,7.786,6.668,9.262a0.35,0.35,0,0,0-.246.4,0.22,0.22,0,0,0,.135.211q3.1,1.545,6.2,3.1a0.252,0.252,0,0,0,.317-0.028,3.074,3.074,0,0,1,2.526-.6,3.189,3.189,0,0,1,2.534,2.434C18.169,14.916,18.185,15.056,18.208,15.2Z"/>
</svg>
