<svg xmlns="http://www.w3.org/2000/svg" width="24" height="24" viewBox="0 0 24 24">
  <defs>
    <style>
      .cls-1 {
        fill-rule: evenodd;
      }
    </style>
  </defs>
  <path id="wa" class="cls-1" d="M23.495,11.153A11.54,11.54,0,0,0,.437,10.942c-0.005.167-.011,0.335-0.011,0.5a11.357,11.357,0,0,0,1.653,5.913L0,23.5l6.39-2.03A11.552,11.552,0,0,0,23.5,11.444C23.5,11.347,23.5,11.25,23.495,11.153ZM11.963,21.067a9.662,9.662,0,0,1-5.336-1.593L2.9,20.662l1.21-3.575a9.526,9.526,0,0,1-1.847-5.643,9,9,0,0,1,.049-0.934,9.7,9.7,0,0,1,19.32.183c0.022,0.249.032,0.5,0.032,0.751A9.673,9.673,0,0,1,11.963,21.067Zm5.288-7.312c-0.286-.14-1.675-0.821-1.934-0.912a0.441,0.441,0,0,0-.637.14c-0.189.281-.735,0.912-0.9,1.1a0.437,0.437,0,0,1-.616.07,7.64,7.64,0,0,1-2.274-1.393,8.375,8.375,0,0,1-1.572-1.938,0.411,0.411,0,0,1,.124-0.572c0.129-.129.281-0.329,0.427-0.491,0.038-.049.07-0.092,0.1-0.135a3.1,3.1,0,0,0,.178-0.335,0.506,0.506,0,0,0-.021-0.491c-0.07-.141-0.637-1.523-0.875-2.084S8.787,6.244,8.62,6.244,8.269,6.217,8.08,6.217a1.046,1.046,0,0,0-.756.351,3.144,3.144,0,0,0-.988,2.344,3.576,3.576,0,0,0,.146.956,6.371,6.371,0,0,0,1.01,1.944,11.61,11.61,0,0,0,4.829,4.239c2.879,1.118,2.879.745,3.4,0.7a2.821,2.821,0,0,0,1.906-1.334,2.317,2.317,0,0,0,.168-1.334A1.493,1.493,0,0,0,17.251,13.755Z"/>
</svg>
