<?xml version="1.0" standalone="no"?>
<!DOCTYPE svg PUBLIC "-//W3C//DTD SVG 20010904//EN"
 "http://www.w3.org/TR/2001/REC-SVG-20010904/DTD/svg10.dtd">
<svg version="1.0" xmlns="http://www.w3.org/2000/svg"
 width="700.000000pt" height="700.000000pt" viewBox="0 0 700.000000 700.000000"
 preserveAspectRatio="xMidYMid meet">
<metadata>
Created by potrace 1.11, written by Peter Selinger 2001-2013
</metadata>
<g transform="translate(0.000000,700.000000) scale(0.100000,-0.100000)"
fill="#000000" stroke="none">
<path d="M5130 5235 l-1755 -1755 1153 -1152 1152 -1153 -837 -3 -838 -2 -702
702 c-638 638 -703 700 -704 673 0 -17 0 -333 -1 -702 l0 -673 -593 0 -594 0
1 2220 0 2220 593 0 593 0 0 -605 c-1 -333 1 -608 4 -610 3 -3 2357 2344 2406
2400 2 2 -1101 3 -2450 3 l-2455 0 0 -2814 0 -2814 654 0 653 0 1 -57 c0 -32
0 -295 0 -585 l1 -528 2744 0 2744 0 0 3495 c0 1922 -3 3495 -7 3495 -5 0
-798 -790 -1763 -1755z"/>
</g>
</svg>
