<?xml version="1.0" encoding="utf-8"?>
<!-- Generator: Adobe Illustrator 23.0.1, SVG Export Plug-In . SVG Version: 6.00 Build 0)  -->
<svg version="1.1" id="Слой_1" xmlns="http://www.w3.org/2000/svg" xmlns:xlink="http://www.w3.org/1999/xlink" x="0px" y="0px"
	 viewBox="0 0 11 11" style="enable-background:new 0 0 11 11;" xml:space="preserve">
<style type="text/css">
	.st0{opacity:0.3;}
	.st1{fill-rule:evenodd;clip-rule:evenodd;}
	.st2{fill-rule:evenodd;clip-rule:evenodd;fill:#FFD000;}
</style>
<g id="Слой_1__x28_копия_x29_" class="st0">
	<path id="Фигура_14_1_" class="st1" d="M6.1,1L4.9,2.2l3.7,3.7L4.9,9.6l1.3,1.3l3.7-3.7l1.3-1.3L6.1,1z M2.3,1L1,2.2l3.7,3.7
		L1,9.6l1.3,1.3l3.7-3.7l1.3-1.3L2.3,1z"/>
</g>
<path id="Фигура_14_2_" class="st2" d="M5.1,0L3.9,1.2l3.7,3.7L3.9,8.6l1.3,1.3l3.7-3.7l1.3-1.3L5.1,0z M1.3,0L0,1.2l3.7,3.7
	L0,8.6l1.3,1.3l3.7-3.7l1.3-1.3L1.3,0z"/>
</svg>
