<?xml version="1.0" encoding="utf-8"?>
<!-- Generator: Adobe Illustrator 23.0.1, SVG Export Plug-In . SVG Version: 6.00 Build 0)  -->
<svg version="1.1" id="Слой_1" xmlns="http://www.w3.org/2000/svg" xmlns:xlink="http://www.w3.org/1999/xlink" x="0px" y="0px"
	 viewBox="0 0 17 20" style="enable-background:new 0 0 17 20;" xml:space="preserve">
<style type="text/css">
	.st0{opacity:0.3;fill-rule:evenodd;clip-rule:evenodd;}
	.st1{fill-rule:evenodd;clip-rule:evenodd;fill:#FFD000;}
</style>
<path id="Back" class="st0" d="M8.7,19.7L8.7,19.7c-0.2,0-0.4,0-0.5-0.1c-0.8-0.1-1.6-0.3-2.4-0.7c-1.6-0.7-3-2-3.7-3.7
	c-0.4-0.8-0.7-1.7-0.8-2.6C1,10.6,1.7,8.5,3,6.9c1.1-1.4,2.7-2.3,4.5-2.7c0.3-0.1,0.7-0.1,1-0.1c0.1,0,0.2-0.1,0.2-0.3V1.7
	c0-0.1,0.1-0.3,0.3-0.3c0.1,0,0.1,0,0.1,0L14.7,5c0.1,0.1,0.2,0.2,0.1,0.4c0,0-0.1,0.1-0.1,0.1L9.1,8.5C9,8.6,8.8,8.5,8.8,8.4
	c0,0,0-0.1,0-0.1V6.1c0-0.1-0.1-0.3-0.3-0.3c0,0,0,0,0,0C5.1,6.2,2.7,9.1,3,12.5s3.3,5.8,6.6,5.5c2.9-0.3,5.2-2.6,5.5-5.5
	c0-0.1,0.1-0.2,0.3-0.2h1.2c0.1,0,0.3,0.1,0.3,0.3c0,0,0,0,0,0c0,0.1,0,0.1,0,0.2c-0.2,2.5-1.6,4.7-3.8,6c-0.9,0.6-1.9,0.9-3,1
	c-0.2,0-0.4,0-0.6,0.1c0,0,0,0-0.1,0c0,0,0,0-0.1,0L8.7,19.7L8.7,19.7z"/>
<path id="Back_1_" class="st1" d="M7.7,18.7L7.7,18.7c-0.2,0-0.4,0-0.5-0.1c-0.8-0.1-1.6-0.3-2.4-0.7c-1.6-0.7-3-2-3.7-3.7
	c-0.4-0.8-0.7-1.7-0.8-2.6C0,9.6,0.7,7.5,2,5.9c1.1-1.4,2.7-2.3,4.5-2.7c0.3-0.1,0.7-0.1,1-0.1c0.1,0,0.2-0.1,0.2-0.3V0.7
	c0-0.1,0.1-0.3,0.3-0.3c0.1,0,0.1,0,0.1,0L13.7,4c0.1,0.1,0.2,0.2,0.1,0.4c0,0-0.1,0.1-0.1,0.1L8.1,7.5C8,7.6,7.8,7.5,7.8,7.4
	c0,0,0-0.1,0-0.1V5.1c0-0.1-0.1-0.3-0.3-0.3c0,0,0,0,0,0C4.1,5.2,1.7,8.1,2,11.5s3.3,5.8,6.6,5.5c2.9-0.3,5.2-2.6,5.5-5.5
	c0-0.1,0.1-0.2,0.3-0.2h1.2c0.1,0,0.3,0.1,0.3,0.3c0,0,0,0,0,0c0,0.1,0,0.1,0,0.2c-0.2,2.5-1.6,4.7-3.8,6c-0.9,0.6-1.9,0.9-3,1
	c-0.2,0-0.4,0-0.6,0.1c0,0,0,0-0.1,0c0,0,0,0-0.1,0L7.7,18.7L7.7,18.7z"/>
</svg>
