<?xml version="1.0" encoding="utf-8"?>
<!-- Generator: Adobe Illustrator 23.0.1, SVG Export Plug-In . SVG Version: 6.00 Build 0)  -->
<svg version="1.1" id="Слой_1" xmlns="http://www.w3.org/2000/svg" xmlns:xlink="http://www.w3.org/1999/xlink" x="0px" y="0px"
	 viewBox="0 0 22 20" style="enable-background:new 0 0 22 20;" xml:space="preserve">
<style type="text/css">
	.st0{opacity:0.3;fill-rule:evenodd;clip-rule:evenodd;}
	.st1{fill-rule:evenodd;clip-rule:evenodd;fill:#FFD000;}
</style>
<path id="home_1_" class="st0" d="M9.9,19.7c-0.1,0-0.1,0-0.2,0c-1.5,0-3,0-4.4,0c-0.5,0.1-0.9-0.3-1-0.8c0-0.1,0-0.2,0-0.2
	c0-0.8,0-1.7,0-2.5c0-1.3,0-2.7,0-4c0-0.2,0.1-0.4,0.2-0.5c2-1.9,4-3.7,6-5.6c0.3-0.3,0.6-0.6,0.9-0.9c0.1-0.1,0.1-0.1,0.3,0
	c1,1,2.1,1.9,3.1,2.9c1.2,1.1,2.4,2.3,3.6,3.4c0.3,0.2,0.5,0.6,0.4,0.9c0,2.1,0,4.2,0,6.3c0,0.1,0,0.2,0,0.3c0,0.4-0.4,0.8-0.9,0.7
	c-0.6,0-1.3,0-1.9,0h-2.7c-0.2,0-0.2,0-0.2-0.2c0-1.7,0-3.5,0-5.2c0-0.1,0-0.1-0.1-0.1c-1,0-2,0-3,0c-0.1,0-0.1,0-0.1,0.1
	c0,1.7,0,3.5,0,5.2C9.9,19.7,9.9,19.7,9.9,19.7z M15.6,4.6c0-0.1,0-0.2,0-0.3c0-0.8,0-1.6,0-2.4c0-0.1,0-0.1,0-0.2
	c0-0.2,0.1-0.4,0.3-0.5c0,0,0.1,0,0.1,0c0.8,0,1.5,0,2.3,0c0.2,0,0.4,0.1,0.5,0.3c0,0,0,0.1,0,0.1c0,0.7,0,1.4,0,2.1
	c0,1.2,0,2.4,0,3.6c0,0.2,0.1,0.3,0.2,0.4c0.8,0.8,1.6,1.5,2.4,2.3c0.1,0.1,0.2,0.2,0.3,0.4c0.1,0.1,0.1,0.2,0,0.4
	c-0.2,0.4-0.5,0.7-0.8,1.1c-0.1,0.2-0.3,0.3-0.5,0.2c-0.1,0-0.1-0.1-0.2-0.1c-0.7-0.6-1.4-1.3-2-1.9L11.8,4c-0.2-0.2-0.3-0.2-0.5,0
	L7.7,7.4c-1.6,1.5-3.2,3-4.8,4.5c-0.3,0.3-0.5,0.3-0.8-0.1c-0.2-0.3-0.5-0.7-0.7-1c-0.1-0.1-0.1-0.3,0-0.4c0.1-0.1,0.2-0.3,0.3-0.4
	c2.5-2.4,5-4.7,7.5-7.1l1.3-1.2c0.5-0.6,1.4-0.6,2-0.1c0,0,0.1,0.1,0.1,0.1c0.9,0.9,1.9,1.8,2.8,2.7C15.5,4.5,15.5,4.5,15.6,4.6z"/>
<path id="home" class="st1" d="M8.9,18.7c-0.1,0-0.1,0-0.2,0c-1.5,0-3,0-4.4,0c-0.5,0.1-0.9-0.3-1-0.8c0-0.1,0-0.2,0-0.2
	c0-0.8,0-1.7,0-2.5c0-1.3,0-2.7,0-4c0-0.2,0.1-0.4,0.2-0.5c2-1.9,4-3.7,6-5.6c0.3-0.3,0.6-0.6,0.9-0.9c0.1-0.1,0.1-0.1,0.3,0
	c1,1,2.1,1.9,3.1,2.9c1.2,1.1,2.4,2.3,3.6,3.4c0.3,0.2,0.5,0.6,0.4,0.9c0,2.1,0,4.2,0,6.3c0,0.1,0,0.2,0,0.3c0,0.4-0.4,0.8-0.9,0.7
	c-0.6,0-1.3,0-1.9,0h-2.7c-0.2,0-0.2,0-0.2-0.2c0-1.7,0-3.5,0-5.2c0-0.1,0-0.1-0.1-0.1c-1,0-2,0-3,0c-0.1,0-0.1,0-0.1,0.1
	c0,1.7,0,3.5,0,5.2C8.9,18.7,8.9,18.7,8.9,18.7z M14.6,3.6c0-0.1,0-0.2,0-0.3c0-0.8,0-1.6,0-2.4c0-0.1,0-0.1,0-0.2
	c0-0.2,0.1-0.4,0.3-0.5c0,0,0.1,0,0.1,0c0.8,0,1.5,0,2.3,0c0.2,0,0.4,0.1,0.5,0.3c0,0,0,0.1,0,0.1c0,0.7,0,1.4,0,2.1
	c0,1.2,0,2.4,0,3.6c0,0.2,0.1,0.3,0.2,0.4c0.8,0.8,1.6,1.5,2.4,2.3c0.1,0.1,0.2,0.2,0.3,0.4c0.1,0.1,0.1,0.2,0,0.4
	c-0.2,0.4-0.5,0.7-0.8,1.1c-0.1,0.2-0.3,0.3-0.5,0.2c-0.1,0-0.1-0.1-0.2-0.1c-0.7-0.6-1.4-1.3-2-1.9L10.8,3c-0.2-0.2-0.3-0.2-0.5,0
	L6.7,6.4c-1.6,1.5-3.2,3-4.8,4.5c-0.3,0.3-0.5,0.3-0.8-0.1c-0.2-0.3-0.5-0.7-0.7-1c-0.1-0.1-0.1-0.3,0-0.4c0.1-0.1,0.2-0.3,0.3-0.4
	c2.5-2.4,5-4.7,7.5-7.1l1.3-1.2c0.5-0.6,1.4-0.6,2-0.1c0,0,0.1,0.1,0.1,0.1c0.9,0.9,1.9,1.8,2.8,2.7C14.5,3.5,14.5,3.5,14.6,3.6z"/>
</svg>
